PathFileType	4	(X/Y/Z)	Patient4_TMGait_0pt7_02_right_42.trc.trc
DataRate	CameraRate	NumFrames	NumMarkers	Units	OrigDataRate	OrigDataStartFrame	OrigNumFrames
84.848484848485	84.848484848485	4	33	mm	84.848484848485	18	       141
Frame#	Time	Sacral			L.Shoulder			Chest			R.Shoulder			Neck			R.ASIS			L.ASIS			R.Thigh.Superior			R.Thigh.Lateral			R.Thigh.Inferior			R.Patella			L.Thigh.Superior			L.Thigh.Lateral			L.Thigh.Inferior			L.Patella			L.Shank.Superior			L.Shank.Lateral			L.Shank.Inferior			R.Shank.Superior			R.Shank.Lateral			R.Shank.Inferior			R.Heel			R.Midfoot.Superior			R.Midfoot.Lateral			R.Toe			L.Heel			L.Midfoot.Lateral			L.Midfoot.Superior			L.Toe			L.Elbow			L.Wrist			R.Elbow			R.Wrist			
		X1	Y1	Z1	X2	Y2	Z2	X3	Y3	Z3	X4	Y4	Z4	X5	Y5	Z5	X6	Y6	Z6	X7	Y7	Z7	X8	Y8	Z8	X9	Y9	Z9	X10	Y10	Z10	X11	Y11	Z11	X12	Y12	Z12	X13	Y13	Z13	X14	Y14	Z14	X15	Y15	Z15	X16	Y16	Z16	X17	Y17	Z17	X18	Y18	Z18	X19	Y19	Z19	X20	Y20	Z20	X21	Y21	Z21	X22	Y22	Z22	X23	Y23	Z23	X24	Y24	Z24	X25	Y25	Z25	X26	Y26	Z26	X27	Y27	Z27	X28	Y28	Z28	X29	Y29	Z29	X30	Y30	Z30	X31	Y31	Z31	X32	Y32	Z32	X33	Y33	Z33	

18	47.740357142857	692.953543534953	1010.313999411357	459.428403062970	912.406974356846	1428.616945758400	284.575844820468	999.935459042290	1352.637264297866	452.022097555408	909.626676749773	1435.987748902535	618.107685671093	903.670462859440	1487.914816102009	437.244826968172	911.608011917817	939.076781670962	590.951062781724	913.738195392944	952.117678107338	315.709604059572	994.322117070719	782.599028675257	558.559406538068	966.267489054479	656.916803593415	632.625869172858	1055.401221045926	626.446854783077	550.331130854762	1095.711955810794	536.963584413758	570.356975236370	920.466892871500	730.754843221212	346.027969848912	808.541019140052	633.904596503168	281.128301066515	869.494890280410	541.437106590731	346.945970416345	855.506623831642	475.066884213550	357.303642946645	823.020945256247	408.153893708903	348.288742393931	723.418457264011	303.720772351161	295.112378022187	757.624203578000	188.663659474514	369.605461270789	1068.832986208203	446.616641859464	578.375894779090	1003.399088600300	339.551868262235	641.536440523576	1061.008619111336	246.608161598342	588.269974813440	948.469314553568	68.684512851239	560.737993712926	1115.245889967080	130.088396882885	596.627730876963	1034.777772192133	57.113846881427	629.708855148144	1238.653838055334	86.081512799399	617.036635893095	617.460226304293	39.033140249770	410.130383146560	691.619353162578	35.265287098756	329.872912221373	775.392809774746	95.033331767560	357.894487044020	903.846291828251	40.334743033548	329.864331511116	990.267596357157	1125.530935433190	111.124451569183	1234.031958465368	1135.836947208540	184.652446615331	778.777362437697	1114.775323083343	734.714349741601	752.779046506643	852.867674321718	735.417603031308	
19	47.752142857143	694.898496185732	1008.216693247188	460.924792641561	912.232201346209	1427.117177118045	285.890809787269	1000.342148934437	1351.485610695528	453.127817566884	910.085928177953	1434.881651094213	619.249342460845	903.554853031035	1486.343352577766	438.346221064361	913.923451995855	936.825663058724	591.925802462506	915.298483259769	951.046559733481	316.615055880626	993.659115084690	776.839235290680	559.985445378951	962.543596626442	651.485901496737	633.685730763267	1051.232253982201	619.951181570401	551.190973262811	1090.670445562429	532.509945714225	570.154810963826	919.028507104934	728.729179177272	345.973310272963	805.025430730993	633.544575461563	281.273716711792	864.609501469981	540.129762199364	346.657169427840	849.846590075428	473.895917239241	356.934657472660	816.868710394764	407.453866625227	348.025318260239	716.221091290851	303.781100022079	295.094616207433	749.908769982399	188.353539371393	369.402938502639	1067.199791923252	442.512273698945	578.468545358180	1006.476989687062	332.382691750869	641.465554673362	1068.370681365200	242.081011502306	587.778026954866	963.688408413078	59.282573410269	559.739290646377	1128.163896080341	127.702851153169	595.802862138389	1050.403434297025	51.569847050404	629.014684238631	1253.498185427781	88.564128662109	616.702269998563	609.139277377884	39.020953292031	410.064870875798	683.289002798929	35.209200662534	329.836900673677	767.050500115585	94.961564868093	357.808242067386	895.477698329313	40.232573073958	329.831495898015	993.671872483452	1125.980398834501	111.874334730048	1235.657879829167	1145.559753175635	187.861461306864	772.808188086521	1117.286571775764	735.829605454383	742.055645138406	856.159686613998	735.471142252791	
20	47.763928571429	697.043535308754	1005.899016175524	462.711524524061	911.926090240538	1425.444018157465	287.329237699171	1000.780871867719	1350.271171698452	454.336005243625	910.557037510462	1433.640876445189	620.538949578660	903.369647775772	1484.618153873504	439.596861226236	916.560237456356	934.418851619851	592.974636650262	916.988725388911	950.000116687683	317.666141958303	993.532508025869	771.117435782513	561.467697008444	959.301420906630	646.111289570109	634.660209536865	1047.616572155179	613.646600556760	551.992473028511	1085.975565245814	527.884975598609	569.824292350805	917.789084335937	726.584629166285	346.018370381449	801.775701615294	633.092367943482	281.577339683492	860.066163161458	538.742777198092	346.513879404817	844.575542205292	472.574554560851	356.699574398259	811.007695988521	406.631149379571	347.891094631646	709.177934014771	303.840476155571	295.195462103908	742.271094644049	187.989983321913	369.246995877701	1065.358781014642	438.176278775523	578.460295516777	1008.363421341982	325.681737467738	641.041412246992	1073.721510072941	237.699651766957	587.067871088537	975.291490699790	51.800424517786	558.447772256851	1137.974319424554	125.155149926313	594.729227540008	1062.105828449673	47.037385506227	628.092951687534	1264.491692779526	89.383601034573	616.113483603770	600.799639372329	38.979436868351	409.983878032053	674.962403186185	35.127740323841	329.798858702858	758.705959562448	94.886193555669	357.726817366467	887.122088667501	40.131187493453	329.785463899573	996.597516943613	1126.104641043717	112.757691005422	1236.593870277749	1153.944438873757	191.084863385351	767.143445064724	1119.739410709156	737.160298913348	732.622347037130	859.261174743743	735.836635176713	
21	47.775714285714	699.331797172414	1003.420468230776	464.775240377706	911.528390837918	1423.629942703932	288.888242817723	1001.264428795138	1349.017289298785	455.661306141449	911.030890283122	1432.278396742559	621.984918919289	903.147850352830	1482.778326395911	441.009483051192	919.442098035829	931.919901839108	594.106993222505	918.782199138627	948.953139617267	318.888093900683	994.062191419960	765.704049242386	562.959594357717	956.772358888556	641.020258622188	635.484030002523	1044.817969927112	607.826284654311	552.713409057738	1081.925276816463	523.306662178095	569.387496202298	916.814815514020	724.361302830044	346.220793059811	798.917029299900	632.523716873880	282.083121238798	856.024871824441	537.268168387529	346.573332702993	839.867055629131	471.072652500241	356.649021240092	805.574632815833	405.646235009354	347.935833612286	702.408513750281	303.904696269309	295.443321000640	734.760223394414	187.571649598887	369.159762438095	1063.539184477446	433.768972147961	578.338466811645	1009.185007718062	319.586844673686	640.299270408554	1077.093567938607	233.474774838525	586.161532687825	983.031452436698	46.208227105758	556.949733055003	1144.595310517568	122.346214867706	593.457749622908	1069.704256500459	43.445222508143	627.022551391848	1271.621752957137	88.326442627101	615.317774750500	592.439362402401	38.949617730609	409.881029348930	666.644602435685	35.033678311975	329.760622065985	750.379474122924	94.813598302796	357.650431489917	878.790684985941	40.027834202250	329.725567985545	998.993006663697	1125.866433083901	113.775618182638	1236.905385052478	1160.944828755981	194.305995005122	761.973990361635	1121.987351035010	738.684633953304	724.436672050432	862.002356179416	736.531106331645	
